<?xml version="1.0" encoding="UTF-8"?>
<svg version="1.1" xmlns="http://www.w3.org/2000/svg" width="2000" height="2000">
<path d="M0 0 C660 0 1320 0 2000 0 C2000 660 2000 1320 2000 2000 C1340 2000 680 2000 0 2000 C0 1340 0 680 0 0 Z " fill="#282C33" transform="translate(0,0)"/>
<path d="M0 0 C4.17850681 4.51624326 7.69186171 9.38418303 11 14.5625 C11.45117188 15.21089844 11.90234375 15.85929687 12.3671875 16.52734375 C21.19311902 30.36925499 23.36180369 49.31190318 20.1484375 65.1640625 C15.45975456 85.13335816 5.1134574 100.25498907 -11.58984375 112.13671875 C-14 113.5625 -14 113.5625 -18 114.5625 C-18 168.6825 -18 222.8025 -18 278.5625 C52.29 278.5625 122.58 278.5625 195 278.5625 C195 224.4425 195 170.3225 195 114.5625 C193.02 113.9025 191.04 113.2425 189 112.5625 C173.21250041 102.32195973 162.9570049 86.5060384 158 68.5625 C154.43814245 46.74048665 157.62727682 27.03990979 169.984375 8.6015625 C181.93488147 -6.93409591 199.55227531 -17.52233798 219 -20.4375 C241.39689838 -22.08506497 260.86454714 -15.8155226 278.125 -1.3125 C291.08959573 10.80702669 299.59196045 27.84179723 300.46875 45.640625 C300.50295988 47.69765859 300.51288517 49.75522231 300.5 51.8125 C300.49355469 52.90151611 300.48710938 53.99053223 300.48046875 55.11254883 C300.07453136 73.14872099 292.82529131 89.26154744 280.36328125 102.3046875 C274.52283678 107.88448404 269.73948128 111.98267291 262 114.5625 C262 168.6825 262 222.8025 262 278.5625 C332.29 278.5625 402.58 278.5625 475 278.5625 C475.061875 251.811875 475.12375 225.06125 475.1875 197.5 C475.25940552 184.8309729 475.25940552 184.8309729 475.33276367 171.90600586 C475.32295434 164.3338496 475.32295434 164.3338496 475.29853821 156.76173401 C475.2880543 153.38890247 475.3084185 150.01777178 475.3474884 146.64515686 C475.3963463 142.34021305 475.39236011 138.03833366 475.35041678 133.73334992 C475.34398211 132.15532978 475.35597736 130.57709912 475.38868177 128.99940479 C475.47927404 124.34822036 475.40845425 120.04648531 474 115.5625 C470.70718921 112.26140957 467.1855491 110.51428938 463 108.5625 C454.37113561 102.06816961 447.81748981 93.11183536 443 83.5625 C442.09894531 81.80679688 442.09894531 81.80679688 441.1796875 80.015625 C434.23818139 64.77410849 434.16006268 43.87433366 439 28 C443.70505026 16.73959882 450.42284809 7.18551903 459 -1.4375 C459.58910156 -2.06140625 460.17820312 -2.6853125 460.78515625 -3.328125 C473.49674429 -15.73239993 492.42684963 -20.69630389 509.66113281 -20.6862793 C528.55335121 -20.38664233 546.1353924 -12.4571119 559.87890625 0.35546875 C567.79916858 8.59662568 572.71266535 18.10503294 577 28.5625 C577.54527344 29.88121094 577.54527344 29.88121094 578.1015625 31.2265625 C583.88741044 48.25966623 580.2509324 69.00541571 572.8125 84.9375 C566.25179053 97.13566344 556.59513487 108.39345435 544 114.5625 C543.34 114.5625 542.68 114.5625 542 114.5625 C542 168.6825 542 222.8025 542 278.5625 C559.82 278.5625 577.64 278.5625 596 278.5625 C628.21551151 285.0056023 652.85699076 296.26159107 673 322.5625 C673.91072266 323.73232422 673.91072266 323.73232422 674.83984375 324.92578125 C698.72985999 357.15834284 696 391.88384903 696 431.5625 C749.79 431.5625 803.58 431.5625 859 431.5625 C859.66 429.5825 860.32 427.6025 861 425.5625 C866.5186895 417.60285169 873.11909144 411.17107993 881 405.5625 C881.6084375 405.10488281 882.216875 404.64726563 882.84375 404.17578125 C887.25198423 401.11128508 892.07548917 399.2197331 897.0625 397.3125 C897.73555176 397.05388184 898.40860352 396.79526367 899.10205078 396.52880859 C915.63101031 390.46643758 935.93633572 392.08056326 951.796875 399.22265625 C969.47605347 407.73035306 982.60433904 421.24839283 990 439.5625 C996.72219356 458.8731492 995.90954631 479.45688278 987.1875 498 C976.97407013 516.87319584 960.07533534 530.13837291 939.625 536.375 C933.88234426 537.69791546 928.24098643 537.84360632 922.375 537.875 C921.50439941 537.88055908 920.63379883 537.88611816 919.73681641 537.8918457 C900.23320686 537.67661062 883.69847003 529.10428818 870 515.5625 C862.36765833 507.70645176 862.36765833 507.70645176 860.8460083 502.97190857 C859.84261614 500.99660045 859.84261614 500.99660045 858 499.5625 C852.93077594 498.44121802 847.83786762 498.61969645 842.67480469 498.67602539 C841.05230641 498.66814684 839.42982059 498.6572001 837.8073616 498.64343166 C833.46045737 498.61502348 829.11463185 498.62863391 824.76773071 498.65090179 C820.68952519 498.66544096 816.61187928 498.64215076 812.53369141 498.62194824 C800.60585168 498.58492729 788.67788602 498.60868138 776.75 498.625 C750.1025 498.604375 723.455 498.58375 696 498.5625 C696 568.8525 696 639.1425 696 711.5625 C722.544375 711.665625 749.08875 711.76875 776.4375 711.875 C784.81310303 711.94114502 793.18870605 712.00729004 801.81811523 712.07543945 C809.33834438 712.07231525 809.33834438 712.07231525 816.85853577 712.05192566 C820.20407931 712.04331715 823.54717834 712.07109578 826.89234924 712.12113953 C831.16612901 712.18387248 835.43566776 712.18376126 839.70962727 712.13906133 C841.27382484 712.13323241 842.83829711 712.14907878 844.40198028 712.18961203 C849.17060427 712.30605555 853.44225936 712.16528667 858 710.5625 C861.94182463 706.61808914 864.26613501 702.4204205 867 697.5625 C877.53237952 684.9992609 893.676656 675.74911617 910 673.5625 C931.88481538 672.12681616 951.95465234 675.33045226 969.12890625 689.875 C969.74636719 690.431875 970.36382813 690.98875 971 691.5625 C971.58652344 692.0575 972.17304687 692.5525 972.77734375 693.0625 C985.95800874 705.0177517 993.30608527 723.20634991 994.25390625 740.6875 C994.96210702 760.43342501 989.33762624 778.63015758 976 793.5625 C975.40703125 794.23667969 974.8140625 794.91085937 974.203125 795.60546875 C960.67066223 810.06059944 942.39709664 816.59979026 922.94848633 817.67602539 C902.53165315 818.03047569 884.19974178 809.5566567 869.625 795.6875 C867.14360984 793.2411825 865.2449871 791.09563055 863.78375149 787.91575146 C862.15120113 784.60297248 860.61800773 782.1813201 858 779.5625 C852.80909063 777.92180852 847.71267605 778.10973258 842.33422852 778.22192383 C840.71135619 778.21526536 839.08849767 778.20377741 837.46568966 778.18786907 C833.13068327 778.15864223 828.79860381 778.19525215 824.46389008 778.24578094 C820.39221395 778.28319068 816.32170468 778.26086392 812.24987793 778.24353027 C800.35401533 778.22752389 788.45817937 778.30706384 776.5625 778.375 C736.6840625 778.4678125 736.6840625 778.4678125 696 778.5625 C696 848.8525 696 919.1425 696 991.5625 C722.585625 991.624375 749.17125 991.68625 776.5625 991.75 C784.95631104 991.79793701 793.35012207 991.84587402 801.99829102 991.89526367 C809.52387758 991.88545424 809.52387758 991.88545424 817.04942322 991.86103821 C820.40142542 991.8505546 823.75171614 991.8709174 827.10350037 991.9099884 C831.38193855 991.95884858 835.65729343 991.95485859 839.93577182 991.91291678 C841.5040234 991.90648241 843.07248684 991.91847581 844.64041054 991.95118177 C849.26675278 992.04185557 853.54128022 991.96909186 858 990.5625 C861.29549033 987.26935478 863.03587284 983.73758001 865 979.5625 C866.85682151 977.14581477 868.88589408 975.0049199 871.0625 972.875 C871.88886963 972.06011108 871.88886963 972.06011108 872.73193359 971.22875977 C881.27271931 963.13197939 891.72536432 957.83800578 903 954.5625 C903.76054688 954.33820312 904.52109375 954.11390625 905.3046875 953.8828125 C924.21670168 949.23440497 944.65500323 953.50965162 961.17041016 963.36035156 C966.37997613 966.78334367 970.68584367 971.09980236 975 975.5625 C975.73734375 976.25730469 976.4746875 976.95210937 977.234375 977.66796875 C989.30808738 989.7650798 994.18571346 1007.76178021 994.4375 1024.375 C994.30150837 1044.76799818 986.91021696 1062.15342579 972.76171875 1076.89453125 C958.61244708 1090.48802139 941.69551615 1096.94741224 922.25 1097.0625 C921.22092529 1097.06894531 920.19185059 1097.07539062 919.1315918 1097.08203125 C908.73334837 1096.90910132 899.1045223 1094.69673053 889.875 1089.875 C889.19687256 1089.52614746 888.51874512 1089.17729492 887.82006836 1088.81787109 C875.90936536 1082.50161069 864.89917231 1072.87381613 859 1060.5625 C859 1059.9025 859 1059.2425 859 1058.5625 C805.21 1058.5625 751.42 1058.5625 696 1058.5625 C696 1074.7325 696 1090.9025 696 1107.5625 C693.62484045 1125.37619663 693.62484045 1125.37619663 691.5 1132.3125 C691.24645752 1133.14322021 690.99291504 1133.97394043 690.73168945 1134.82983398 C686.17169731 1148.9273775 679.02355083 1161.64491033 669 1172.5625 C668.19691406 1173.49449219 667.39382813 1174.42648437 666.56640625 1175.38671875 C652.67562875 1191.27118038 634.71281702 1202.1884288 614.5625 1208.3125 C613.91958008 1208.51125732 613.27666016 1208.71001465 612.61425781 1208.91479492 C589.82092575 1215.45400344 565.08937365 1212.5625 542 1212.5625 C542 1266.3525 542 1320.1425 542 1375.5625 C543.65 1376.2225 545.3 1376.8825 547 1377.5625 C563.62117131 1387.24901043 573.6712363 1403.44927746 579 1421.5625 C583.43010591 1441.1567387 579.20182421 1461.55945964 569 1478.5625 C557.8702469 1495.01417247 542.10099853 1505.43863591 522.87890625 1509.71875 C502.969224 1513.52997532 482.59970355 1508.92014826 465.79296875 1497.69140625 C451.75457663 1486.99081365 443.02451157 1473.52785486 438 1456.5625 C437.75378906 1455.73492188 437.50757813 1454.90734375 437.25390625 1454.0546875 C432.65315016 1435.33436961 437.15519238 1415.73660383 446.79345703 1399.41259766 C450.1961158 1394.19500393 454.51968111 1389.85286385 459 1385.5625 C459.73734375 1384.85222656 460.4746875 1384.14195313 461.234375 1383.41015625 C464.35447656 1380.55006315 466.46020256 1378.73413479 470.57252502 1377.42657471 C472.55624864 1376.4148888 472.55624864 1376.4148888 474 1374.5625 C475.12265739 1369.49388586 474.94280073 1364.40010934 474.88647461 1359.23730469 C474.89435316 1357.61480641 474.9052999 1355.99232059 474.91906834 1354.3698616 C474.94747652 1350.02295737 474.93386609 1345.67713185 474.91159821 1341.33023071 C474.89705904 1337.25202519 474.92034924 1333.17437928 474.94055176 1329.09619141 C474.97757271 1317.16835168 474.95381862 1305.24038602 474.9375 1293.3125 C474.958125 1266.665 474.97875 1240.0175 475 1212.5625 C404.71 1212.5625 334.42 1212.5625 262 1212.5625 C261.896875 1239.106875 261.79375 1265.65125 261.6875 1293 C261.62135498 1301.37560303 261.55520996 1309.75120605 261.48706055 1318.38061523 C261.49018475 1325.90084438 261.49018475 1325.90084438 261.51057434 1333.42103577 C261.51918285 1336.76657931 261.49140422 1340.10967834 261.44136047 1343.45484924 C261.37862752 1347.72862901 261.37873874 1351.99816776 261.42343867 1356.27212727 C261.42926759 1357.83632484 261.41342122 1359.40079711 261.37288797 1360.96448028 C260.99460065 1369.01365903 260.99460065 1369.01365903 264.27997994 1376.04533887 C267.84602278 1379.13995785 271.88716812 1381.26744253 276 1383.5625 C288.53666203 1394.03753531 297.97294865 1410.29541295 300 1426.5625 C301.35188431 1448.59097196 298.34757245 1468.38074034 283.6875 1485.69140625 C283.130625 1486.30886719 282.57375 1486.92632813 282 1487.5625 C281.505 1488.14902344 281.01 1488.73554687 280.5 1489.33984375 C268.57610269 1502.48594053 250.45759546 1509.82147213 233.02734375 1510.78125 C211.13676161 1511.43968838 192.18875275 1504.26899741 176.1875 1489.3125 C160.56751016 1472.80403368 156.22741768 1452.42749447 156.62109375 1430.5078125 C156.95783247 1422.87265426 158.76770883 1416.52173376 162 1409.5625 C162.45761719 1408.5725 162.91523437 1407.5825 163.38671875 1406.5625 C168.32579363 1396.81966735 177.33781108 1382.87701105 187.97729492 1378.80590534 C190.58614574 1377.69027496 192.11106152 1376.7006362 194 1374.5625 C195.24897728 1369.45326452 195.06994598 1364.34681533 195 1359.1237793 C195.00757421 1357.501157 195.01865617 1355.87854789 195.03295898 1354.25597095 C195.0615648 1349.91312686 195.04220527 1345.5717389 195.01287842 1341.2289505 C194.99262845 1337.15293609 195.01567338 1333.07761346 195.03515625 1329.00158691 C195.06691455 1317.08442783 195.02921909 1305.16716558 195 1293.25 C195 1266.623125 195 1239.99625 195 1212.5625 C124.71 1212.5625 54.42 1212.5625 -18 1212.5625 C-18.103125 1239.106875 -18.20625 1265.65125 -18.3125 1293 C-18.37864502 1301.37560303 -18.44479004 1309.75120605 -18.51293945 1318.38061523 C-18.50981525 1325.90084438 -18.50981525 1325.90084438 -18.48942566 1333.42103577 C-18.48081715 1336.76657931 -18.50859578 1340.10967834 -18.55863953 1343.45484924 C-18.62137248 1347.72862901 -18.62126126 1351.99816776 -18.57656133 1356.27212727 C-18.57073241 1357.83632484 -18.58657878 1359.40079711 -18.62711203 1360.96448028 C-19.00477878 1369.00980784 -19.00477878 1369.00980784 -15.72606254 1376.04131055 C-12.16006318 1379.1391793 -8.11221121 1381.26275862 -4 1383.5625 C9.9031364 1395.00361078 18.54288918 1411.89979034 21 1429.5625 C22.65758135 1449.37855723 17.8656308 1468.12269969 5.33984375 1483.81640625 C-4.16932632 1494.97658415 -14.99633676 1502.853083 -29 1507.5625 C-30.155 1507.954375 -31.31 1508.34625 -32.5 1508.75 C-37.01361104 1509.79780256 -41.37740489 1510.29605015 -46 1510.5625 C-47.12664062 1510.62824219 -48.25328125 1510.69398437 -49.4140625 1510.76171875 C-67.84494638 1511.32434573 -84.83167419 1505.63649466 -98.5 1493.0625 C-100.36889834 1491.26008662 -102.18412168 1489.41964829 -104 1487.5625 C-104.66515625 1486.92957031 -105.3303125 1486.29664063 -106.015625 1485.64453125 C-112.09312949 1479.4438341 -115.54126347 1471.41275412 -119 1463.5625 C-119.46019531 1462.53382812 -119.92039062 1461.50515625 -120.39453125 1460.4453125 C-126.47450717 1444.24636606 -124.25428017 1424.25369744 -117.33984375 1408.73828125 C-111.13631057 1395.72791146 -100.07308486 1382.09904243 -87 1375.5625 C-86.34 1375.5625 -85.68 1375.5625 -85 1375.5625 C-85 1321.7725 -85 1267.9825 -85 1212.5625 C-100.84 1212.5625 -116.68 1212.5625 -133 1212.5625 C-152.76568538 1210.23712525 -152.76568538 1210.23712525 -159.0625 1207.9375 C-159.80016602 1207.67807617 -160.53783203 1207.41865234 -161.29785156 1207.15136719 C-176.72335466 1201.53909565 -192.3126255 1193.43666912 -203.47265625 1181.1328125 C-205.05813667 1179.426487 -205.05813667 1179.426487 -207.37890625 1177.7421875 C-210.31495742 1175.3005831 -212.58880902 1172.59268555 -214.875 1169.5625 C-215.30917236 1168.98854492 -215.74334473 1168.41458984 -216.19067383 1167.82324219 C-241.53042615 1133.74968131 -238 1100.44151425 -238 1057.5625 C-292.12 1057.5625 -346.24 1057.5625 -402 1057.5625 C-402.66 1059.5425 -403.32 1061.5225 -404 1063.5625 C-407.71656439 1069.01838371 -412.15114504 1074.08663388 -417 1078.5625 C-417.928125 1079.490625 -418.85625 1080.41875 -419.8125 1081.375 C-434.48271066 1093.79320464 -454.31600219 1097.79339383 -473 1096.5625 C-492.42086614 1093.97982984 -509.63306642 1084.7853945 -522 1069.5625 C-534.12201799 1052.71347499 -538.90184229 1033.08876678 -536 1012.5625 C-532.28491297 992.81600479 -521.72092405 976.15534689 -505.30859375 964.56640625 C-487.59612987 953.83855032 -467.54589524 950.60099967 -447.125 954.5625 C-429.63287705 959.46212606 -412.86940388 970.73197884 -403.5 986.5 C-402 989.5625 -402 989.5625 -402 991.5625 C-347.88 991.5625 -293.76 991.5625 -238 991.5625 C-238 921.2725 -238 850.9825 -238 778.5625 C-292.12 778.5625 -346.24 778.5625 -402 778.5625 C-402.99 781.0375 -402.99 781.0375 -404 783.5625 C-405.3671875 785.625 -405.3671875 785.625 -406.875 787.5625 C-407.61363281 788.5215625 -407.61363281 788.5215625 -408.3671875 789.5 C-408.90601563 790.180625 -409.44484375 790.86125 -410 791.5625 C-410.62648438 792.3875 -411.25296875 793.2125 -411.8984375 794.0625 C-414.01694759 796.58266071 -416.16977098 798.52461211 -418.75 800.5625 C-419.94882812 801.5215625 -419.94882812 801.5215625 -421.171875 802.5 C-427.53229023 807.13853486 -433.54215658 810.439669 -441.0625 812.8125 C-441.82626953 813.06773437 -442.59003906 813.32296875 -443.37695312 813.5859375 C-461.88216539 819.60131873 -481.73215235 817.16108717 -499 808.5625 C-516.15026124 799.53986609 -528.01491461 784.51404428 -534.03125 766.16015625 C-539.30518213 746.57430345 -537.12936574 727.20288935 -527.62109375 709.30078125 C-525.09739827 705.0378643 -522.27347984 701.27550519 -519 697.5625 C-517.95779297 696.34433594 -517.95779297 696.34433594 -516.89453125 695.1015625 C-504.64725428 681.76700634 -487.29061314 674.34886178 -469.30859375 673.359375 C-449.09585466 673.11461933 -430.15573505 678.68888585 -415.26269531 692.88110352 C-410.17521661 697.9078668 -405.28441871 703.13771603 -402 709.5625 C-402 710.2225 -402 710.8825 -402 711.5625 C-347.88 711.5625 -293.76 711.5625 -238 711.5625 C-238 641.2725 -238 570.9825 -238 498.5625 C-292.12 498.5625 -346.24 498.5625 -402 498.5625 C-402.99 501.0375 -402.99 501.0375 -404 503.5625 C-405.81324797 506.37499917 -407.91174631 508.94975468 -410 511.5625 C-410.49242187 512.21476563 -410.98484375 512.86703125 -411.4921875 513.5390625 C-421.93416452 526.57854624 -439.00934228 535.04913009 -455.375 537.1875 C-456.91528797 537.32847551 -458.45712605 537.4534079 -460 537.5625 C-460.72445312 537.61664062 -461.44890625 537.67078125 -462.1953125 537.7265625 C-481.65608603 538.45221846 -499.35214952 531.15778545 -514 518.5625 C-528.09485722 505.38887528 -535.66641314 487.67724499 -537 468.5625 C-537.34449899 449.53850048 -531.56386668 431.11744285 -518.2355957 417.25390625 C-510.18752389 409.13601311 -502.14648369 402.20744851 -491.25 398.3125 C-490.56534668 398.06290527 -489.88069336 397.81331055 -489.17529297 397.55615234 C-470.56310137 391.04987242 -450.87346073 392.55025688 -432.98876953 400.56738281 C-419.79776861 407.16774124 -408.97711389 417.61123234 -402 430.5625 C-402 431.2225 -402 431.8825 -402 432.5625 C-347.88 432.5625 -293.76 432.5625 -238 432.5625 C-238 415.0725 -238 397.5825 -238 379.5625 C-234.48289286 359.63222618 -234.48289286 359.63222618 -232.3125 353.4375 C-232.05758789 352.69798096 -231.80267578 351.95846191 -231.54003906 351.1965332 C-226.85254093 338.12950213 -219.83298576 327.18708192 -211 316.5625 C-210.30390625 315.68980469 -209.6078125 314.81710937 -208.890625 313.91796875 C-197.15688767 299.91247401 -180.34261309 290.21971506 -163.25 284.25 C-162.60893311 284.01949951 -161.96786621 283.78899902 -161.30737305 283.55151367 C-136.52057884 275.48091214 -109.31767419 278.5625 -84 278.5625 C-84 224.4425 -84 170.3225 -84 114.5625 C-85.32 114.2325 -86.64 113.9025 -88 113.5625 C-103.08467057 105.73639368 -114.07179726 91.00156798 -119.34814453 75.10229492 C-125.34777294 55.75293153 -124.4828664 35.72619931 -115 17.5625 C-104.23162844 -0.24511833 -89.54443602 -12.47443465 -69.23828125 -18.21875 C-66.82881739 -18.73317243 -64.44176736 -19.11384292 -62 -19.4375 C-61.27296875 -19.57027344 -60.5459375 -19.70304688 -59.796875 -19.83984375 C-38.59410581 -23.04910643 -15.33631347 -14.71140426 0 0 Z " fill="#282C33" transform="translate(771,220.4375)"/>
<path d="M0 0 C4.17850681 4.51624326 7.69186171 9.38418303 11 14.5625 C11.45117188 15.21089844 11.90234375 15.85929687 12.3671875 16.52734375 C21.19311902 30.36925499 23.36180369 49.31190318 20.1484375 65.1640625 C15.45975456 85.13335816 5.1134574 100.25498907 -11.58984375 112.13671875 C-14 113.5625 -14 113.5625 -18 114.5625 C-18 168.6825 -18 222.8025 -18 278.5625 C52.29 278.5625 122.58 278.5625 195 278.5625 C195 224.4425 195 170.3225 195 114.5625 C193.02 113.9025 191.04 113.2425 189 112.5625 C173.21250041 102.32195973 162.9570049 86.5060384 158 68.5625 C154.43814245 46.74048665 157.62727682 27.03990979 169.984375 8.6015625 C181.93488147 -6.93409591 199.55227531 -17.52233798 219 -20.4375 C241.39689838 -22.08506497 260.86454714 -15.8155226 278.125 -1.3125 C291.08959573 10.80702669 299.59196045 27.84179723 300.46875 45.640625 C300.50295988 47.69765859 300.51288517 49.75522231 300.5 51.8125 C300.49355469 52.90151611 300.48710938 53.99053223 300.48046875 55.11254883 C300.07453136 73.14872099 292.82529131 89.26154744 280.36328125 102.3046875 C274.52283678 107.88448404 269.73948128 111.98267291 262 114.5625 C262 168.6825 262 222.8025 262 278.5625 C332.29 278.5625 402.58 278.5625 475 278.5625 C475.061875 251.811875 475.12375 225.06125 475.1875 197.5 C475.25940552 184.8309729 475.25940552 184.8309729 475.33276367 171.90600586 C475.32295434 164.3338496 475.32295434 164.3338496 475.29853821 156.76173401 C475.2880543 153.38890247 475.3084185 150.01777178 475.3474884 146.64515686 C475.3963463 142.34021305 475.39236011 138.03833366 475.35041678 133.73334992 C475.34398211 132.15532978 475.35597736 130.57709912 475.38868177 128.99940479 C475.47927404 124.34822036 475.40845425 120.04648531 474 115.5625 C470.70718921 112.26140957 467.1855491 110.51428938 463 108.5625 C454.37113561 102.06816961 447.81748981 93.11183536 443 83.5625 C442.09894531 81.80679688 442.09894531 81.80679688 441.1796875 80.015625 C434.23818139 64.77410849 434.16006268 43.87433366 439 28 C443.70505026 16.73959882 450.42284809 7.18551903 459 -1.4375 C459.58910156 -2.06140625 460.17820312 -2.6853125 460.78515625 -3.328125 C473.49674429 -15.73239993 492.42684963 -20.69630389 509.66113281 -20.6862793 C528.55335121 -20.38664233 546.1353924 -12.4571119 559.87890625 0.35546875 C567.79916858 8.59662568 572.71266535 18.10503294 577 28.5625 C577.54527344 29.88121094 577.54527344 29.88121094 578.1015625 31.2265625 C583.88741044 48.25966623 580.2509324 69.00541571 572.8125 84.9375 C566.25179053 97.13566344 556.59513487 108.39345435 544 114.5625 C543.34 114.5625 542.68 114.5625 542 114.5625 C542 168.6825 542 222.8025 542 278.5625 C559.82 278.5625 577.64 278.5625 596 278.5625 C628.21551151 285.0056023 652.85699076 296.26159107 673 322.5625 C673.91072266 323.73232422 673.91072266 323.73232422 674.83984375 324.92578125 C698.72985999 357.15834284 696 391.88384903 696 431.5625 C749.79 431.5625 803.58 431.5625 859 431.5625 C859.66 429.5825 860.32 427.6025 861 425.5625 C866.5186895 417.60285169 873.11909144 411.17107993 881 405.5625 C881.6084375 405.10488281 882.216875 404.64726563 882.84375 404.17578125 C887.25198423 401.11128508 892.07548917 399.2197331 897.0625 397.3125 C897.73555176 397.05388184 898.40860352 396.79526367 899.10205078 396.52880859 C915.63101031 390.46643758 935.93633572 392.08056326 951.796875 399.22265625 C969.47605347 407.73035306 982.60433904 421.24839283 990 439.5625 C996.72219356 458.8731492 995.90954631 479.45688278 987.1875 498 C976.97407013 516.87319584 960.07533534 530.13837291 939.625 536.375 C933.88234426 537.69791546 928.24098643 537.84360632 922.375 537.875 C921.50439941 537.88055908 920.63379883 537.88611816 919.73681641 537.8918457 C900.23320686 537.67661062 883.69847003 529.10428818 870 515.5625 C862.36765833 507.70645176 862.36765833 507.70645176 860.8460083 502.97190857 C859.84261614 500.99660045 859.84261614 500.99660045 858 499.5625 C852.93077594 498.44121802 847.83786762 498.61969645 842.67480469 498.67602539 C841.05230641 498.66814684 839.42982059 498.6572001 837.8073616 498.64343166 C833.46045737 498.61502348 829.11463185 498.62863391 824.76773071 498.65090179 C820.68952519 498.66544096 816.61187928 498.64215076 812.53369141 498.62194824 C800.60585168 498.58492729 788.67788602 498.60868138 776.75 498.625 C750.1025 498.604375 723.455 498.58375 696 498.5625 C696 568.8525 696 639.1425 696 711.5625 C722.544375 711.665625 749.08875 711.76875 776.4375 711.875 C784.81310303 711.94114502 793.18870605 712.00729004 801.81811523 712.07543945 C809.33834438 712.07231525 809.33834438 712.07231525 816.85853577 712.05192566 C820.20407931 712.04331715 823.54717834 712.07109578 826.89234924 712.12113953 C831.16612901 712.18387248 835.43566776 712.18376126 839.70962727 712.13906133 C841.27382484 712.13323241 842.83829711 712.14907878 844.40198028 712.18961203 C849.17060427 712.30605555 853.44225936 712.16528667 858 710.5625 C861.94182463 706.61808914 864.26613501 702.4204205 867 697.5625 C877.53237952 684.9992609 893.676656 675.74911617 910 673.5625 C931.88481538 672.12681616 951.95465234 675.33045226 969.12890625 689.875 C969.74636719 690.431875 970.36382813 690.98875 971 691.5625 C971.58652344 692.0575 972.17304687 692.5525 972.77734375 693.0625 C985.95800874 705.0177517 993.30608527 723.20634991 994.25390625 740.6875 C994.96210702 760.43342501 989.33762624 778.63015758 976 793.5625 C975.40703125 794.23667969 974.8140625 794.91085937 974.203125 795.60546875 C960.67066223 810.06059944 942.39709664 816.59979026 922.94848633 817.67602539 C902.53165315 818.03047569 884.19974178 809.5566567 869.625 795.6875 C867.14360984 793.2411825 865.2449871 791.09563055 863.78375149 787.91575146 C862.15120113 784.60297248 860.61800773 782.1813201 858 779.5625 C852.80909063 777.92180852 847.71267605 778.10973258 842.33422852 778.22192383 C840.71135619 778.21526536 839.08849767 778.20377741 837.46568966 778.18786907 C833.13068327 778.15864223 828.79860381 778.19525215 824.46389008 778.24578094 C820.39221395 778.28319068 816.32170468 778.26086392 812.24987793 778.24353027 C800.35401533 778.22752389 788.45817937 778.30706384 776.5625 778.375 C736.6840625 778.4678125 736.6840625 778.4678125 696 778.5625 C696 848.8525 696 919.1425 696 991.5625 C722.585625 991.624375 749.17125 991.68625 776.5625 991.75 C784.95631104 991.79793701 793.35012207 991.84587402 801.99829102 991.89526367 C809.52387758 991.88545424 809.52387758 991.88545424 817.04942322 991.86103821 C820.40142542 991.8505546 823.75171614 991.8709174 827.10350037 991.9099884 C831.38193855 991.95884858 835.65729343 991.95485859 839.93577182 991.91291678 C841.5040234 991.90648241 843.07248684 991.91847581 844.64041054 991.95118177 C849.26675278 992.04185557 853.54128022 991.96909186 858 990.5625 C861.29549033 987.26935478 863.03587284 983.73758001 865 979.5625 C866.85682151 977.14581477 868.88589408 975.0049199 871.0625 972.875 C871.88886963 972.06011108 871.88886963 972.06011108 872.73193359 971.22875977 C881.27271931 963.13197939 891.72536432 957.83800578 903 954.5625 C903.76054688 954.33820312 904.52109375 954.11390625 905.3046875 953.8828125 C924.21670168 949.23440497 944.65500323 953.50965162 961.17041016 963.36035156 C966.37997613 966.78334367 970.68584367 971.09980236 975 975.5625 C975.73734375 976.25730469 976.4746875 976.95210937 977.234375 977.66796875 C989.30808738 989.7650798 994.18571346 1007.76178021 994.4375 1024.375 C994.30150837 1044.76799818 986.91021696 1062.15342579 972.76171875 1076.89453125 C958.61244708 1090.48802139 941.69551615 1096.94741224 922.25 1097.0625 C921.22092529 1097.06894531 920.19185059 1097.07539062 919.1315918 1097.08203125 C908.73334837 1096.90910132 899.1045223 1094.69673053 889.875 1089.875 C889.19687256 1089.52614746 888.51874512 1089.17729492 887.82006836 1088.81787109 C875.90936536 1082.50161069 864.89917231 1072.87381613 859 1060.5625 C859 1059.9025 859 1059.2425 859 1058.5625 C805.21 1058.5625 751.42 1058.5625 696 1058.5625 C696 1074.7325 696 1090.9025 696 1107.5625 C693.62484045 1125.37619663 693.62484045 1125.37619663 691.5 1132.3125 C691.24645752 1133.14322021 690.99291504 1133.97394043 690.73168945 1134.82983398 C686.17169731 1148.9273775 679.02355083 1161.64491033 669 1172.5625 C668.19691406 1173.49449219 667.39382813 1174.42648437 666.56640625 1175.38671875 C652.67562875 1191.27118038 634.71281702 1202.1884288 614.5625 1208.3125 C613.91958008 1208.51125732 613.27666016 1208.71001465 612.61425781 1208.91479492 C589.82092575 1215.45400344 565.08937365 1212.5625 542 1212.5625 C542 1266.3525 542 1320.1425 542 1375.5625 C543.65 1376.2225 545.3 1376.8825 547 1377.5625 C563.62117131 1387.24901043 573.6712363 1403.44927746 579 1421.5625 C583.43010591 1441.1567387 579.20182421 1461.55945964 569 1478.5625 C557.8702469 1495.01417247 542.10099853 1505.43863591 522.87890625 1509.71875 C502.969224 1513.52997532 482.59970355 1508.92014826 465.79296875 1497.69140625 C451.75457663 1486.99081365 443.02451157 1473.52785486 438 1456.5625 C437.75378906 1455.73492188 437.50757813 1454.90734375 437.25390625 1454.0546875 C432.65315016 1435.33436961 437.15519238 1415.73660383 446.79345703 1399.41259766 C450.1961158 1394.19500393 454.51968111 1389.85286385 459 1385.5625 C459.73734375 1384.85222656 460.4746875 1384.14195313 461.234375 1383.41015625 C464.35447656 1380.55006315 466.46020256 1378.73413479 470.57252502 1377.42657471 C472.55624864 1376.4148888 472.55624864 1376.4148888 474 1374.5625 C475.12265739 1369.49388586 474.94280073 1364.40010934 474.88647461 1359.23730469 C474.89435316 1357.61480641 474.9052999 1355.99232059 474.91906834 1354.3698616 C474.94747652 1350.02295737 474.93386609 1345.67713185 474.91159821 1341.33023071 C474.89705904 1337.25202519 474.92034924 1333.17437928 474.94055176 1329.09619141 C474.97757271 1317.16835168 474.95381862 1305.24038602 474.9375 1293.3125 C474.958125 1266.665 474.97875 1240.0175 475 1212.5625 C404.71 1212.5625 334.42 1212.5625 262 1212.5625 C261.896875 1239.106875 261.79375 1265.65125 261.6875 1293 C261.62135498 1301.37560303 261.55520996 1309.75120605 261.48706055 1318.38061523 C261.49018475 1325.90084438 261.49018475 1325.90084438 261.51057434 1333.42103577 C261.51918285 1336.76657931 261.49140422 1340.10967834 261.44136047 1343.45484924 C261.37862752 1347.72862901 261.37873874 1351.99816776 261.42343867 1356.27212727 C261.42926759 1357.83632484 261.41342122 1359.40079711 261.37288797 1360.96448028 C260.99460065 1369.01365903 260.99460065 1369.01365903 264.27997994 1376.04533887 C267.84602278 1379.13995785 271.88716812 1381.26744253 276 1383.5625 C288.53666203 1394.03753531 297.97294865 1410.29541295 300 1426.5625 C301.35188431 1448.59097196 298.34757245 1468.38074034 283.6875 1485.69140625 C283.130625 1486.30886719 282.57375 1486.92632813 282 1487.5625 C281.505 1488.14902344 281.01 1488.73554687 280.5 1489.33984375 C268.57610269 1502.48594053 250.45759546 1509.82147213 233.02734375 1510.78125 C211.13676161 1511.43968838 192.18875275 1504.26899741 176.1875 1489.3125 C160.56751016 1472.80403368 156.22741768 1452.42749447 156.62109375 1430.5078125 C156.95783247 1422.87265426 158.76770883 1416.52173376 162 1409.5625 C162.45761719 1408.5725 162.91523437 1407.5825 163.38671875 1406.5625 C168.32579363 1396.81966735 177.33781108 1382.87701105 187.97729492 1378.80590534 C190.58614574 1377.69027496 192.11106152 1376.7006362 194 1374.5625 C195.24897728 1369.45326452 195.06994598 1364.34681533 195 1359.1237793 C195.00757421 1357.501157 195.01865617 1355.87854789 195.03295898 1354.25597095 C195.0615648 1349.91312686 195.04220527 1345.5717389 195.01287842 1341.2289505 C194.99262845 1337.15293609 195.01567338 1333.07761346 195.03515625 1329.00158691 C195.06691455 1317.08442783 195.02921909 1305.16716558 195 1293.25 C195 1266.623125 195 1239.99625 195 1212.5625 C124.71 1212.5625 54.42 1212.5625 -18 1212.5625 C-18.103125 1239.106875 -18.20625 1265.65125 -18.3125 1293 C-18.37864502 1301.37560303 -18.44479004 1309.75120605 -18.51293945 1318.38061523 C-18.50981525 1325.90084438 -18.50981525 1325.90084438 -18.48942566 1333.42103577 C-18.48081715 1336.76657931 -18.50859578 1340.10967834 -18.55863953 1343.45484924 C-18.62137248 1347.72862901 -18.62126126 1351.99816776 -18.57656133 1356.27212727 C-18.57073241 1357.83632484 -18.58657878 1359.40079711 -18.62711203 1360.96448028 C-19.00477878 1369.00980784 -19.00477878 1369.00980784 -15.72606254 1376.04131055 C-12.16006318 1379.1391793 -8.11221121 1381.26275862 -4 1383.5625 C9.9031364 1395.00361078 18.54288918 1411.89979034 21 1429.5625 C22.65758135 1449.37855723 17.8656308 1468.12269969 5.33984375 1483.81640625 C-4.16932632 1494.97658415 -14.99633676 1502.853083 -29 1507.5625 C-30.155 1507.954375 -31.31 1508.34625 -32.5 1508.75 C-37.01361104 1509.79780256 -41.37740489 1510.29605015 -46 1510.5625 C-47.12664062 1510.62824219 -48.25328125 1510.69398437 -49.4140625 1510.76171875 C-67.84494638 1511.32434573 -84.83167419 1505.63649466 -98.5 1493.0625 C-100.36889834 1491.26008662 -102.18412168 1489.41964829 -104 1487.5625 C-104.66515625 1486.92957031 -105.3303125 1486.29664063 -106.015625 1485.64453125 C-112.09312949 1479.4438341 -115.54126347 1471.41275412 -119 1463.5625 C-119.46019531 1462.53382812 -119.92039062 1461.50515625 -120.39453125 1460.4453125 C-126.47450717 1444.24636606 -124.25428017 1424.25369744 -117.33984375 1408.73828125 C-111.13631057 1395.72791146 -100.07308486 1382.09904243 -87 1375.5625 C-86.34 1375.5625 -85.68 1375.5625 -85 1375.5625 C-85 1321.7725 -85 1267.9825 -85 1212.5625 C-100.84 1212.5625 -116.68 1212.5625 -133 1212.5625 C-152.76568538 1210.23712525 -152.76568538 1210.23712525 -159.0625 1207.9375 C-159.80016602 1207.67807617 -160.53783203 1207.41865234 -161.29785156 1207.15136719 C-176.72335466 1201.53909565 -192.3126255 1193.43666912 -203.47265625 1181.1328125 C-205.05813667 1179.426487 -205.05813667 1179.426487 -207.37890625 1177.7421875 C-210.31495742 1175.3005831 -212.58880902 1172.59268555 -214.875 1169.5625 C-215.30917236 1168.98854492 -215.74334473 1168.41458984 -216.19067383 1167.82324219 C-241.53042615 1133.74968131 -238 1100.44151425 -238 1057.5625 C-292.12 1057.5625 -346.24 1057.5625 -402 1057.5625 C-402.66 1059.5425 -403.32 1061.5225 -404 1063.5625 C-407.71656439 1069.01838371 -412.15114504 1074.08663388 -417 1078.5625 C-417.928125 1079.490625 -418.85625 1080.41875 -419.8125 1081.375 C-434.48271066 1093.79320464 -454.31600219 1097.79339383 -473 1096.5625 C-492.42086614 1093.97982984 -509.63306642 1084.7853945 -522 1069.5625 C-534.12201799 1052.71347499 -538.90184229 1033.08876678 -536 1012.5625 C-532.28491297 992.81600479 -521.72092405 976.15534689 -505.30859375 964.56640625 C-487.59612987 953.83855032 -467.54589524 950.60099967 -447.125 954.5625 C-429.63287705 959.46212606 -412.86940388 970.73197884 -403.5 986.5 C-402 989.5625 -402 989.5625 -402 991.5625 C-347.88 991.5625 -293.76 991.5625 -238 991.5625 C-238 921.2725 -238 850.9825 -238 778.5625 C-292.12 778.5625 -346.24 778.5625 -402 778.5625 C-402.99 781.0375 -402.99 781.0375 -404 783.5625 C-405.3671875 785.625 -405.3671875 785.625 -406.875 787.5625 C-407.61363281 788.5215625 -407.61363281 788.5215625 -408.3671875 789.5 C-408.90601563 790.180625 -409.44484375 790.86125 -410 791.5625 C-410.62648438 792.3875 -411.25296875 793.2125 -411.8984375 794.0625 C-414.01694759 796.58266071 -416.16977098 798.52461211 -418.75 800.5625 C-419.94882812 801.5215625 -419.94882812 801.5215625 -421.171875 802.5 C-427.53229023 807.13853486 -433.54215658 810.439669 -441.0625 812.8125 C-441.82626953 813.06773437 -442.59003906 813.32296875 -443.37695312 813.5859375 C-461.88216539 819.60131873 -481.73215235 817.16108717 -499 808.5625 C-516.15026124 799.53986609 -528.01491461 784.51404428 -534.03125 766.16015625 C-539.30518213 746.57430345 -537.12936574 727.20288935 -527.62109375 709.30078125 C-525.09739827 705.0378643 -522.27347984 701.27550519 -519 697.5625 C-517.95779297 696.34433594 -517.95779297 696.34433594 -516.89453125 695.1015625 C-504.64725428 681.76700634 -487.29061314 674.34886178 -469.30859375 673.359375 C-449.09585466 673.11461933 -430.15573505 678.68888585 -415.26269531 692.88110352 C-410.17521661 697.9078668 -405.28441871 703.13771603 -402 709.5625 C-402 710.2225 -402 710.8825 -402 711.5625 C-347.88 711.5625 -293.76 711.5625 -238 711.5625 C-238 641.2725 -238 570.9825 -238 498.5625 C-292.12 498.5625 -346.24 498.5625 -402 498.5625 C-402.99 501.0375 -402.99 501.0375 -404 503.5625 C-405.81324797 506.37499917 -407.91174631 508.94975468 -410 511.5625 C-410.49242187 512.21476563 -410.98484375 512.86703125 -411.4921875 513.5390625 C-421.93416452 526.57854624 -439.00934228 535.04913009 -455.375 537.1875 C-456.91528797 537.32847551 -458.45712605 537.4534079 -460 537.5625 C-460.72445312 537.61664062 -461.44890625 537.67078125 -462.1953125 537.7265625 C-481.65608603 538.45221846 -499.35214952 531.15778545 -514 518.5625 C-528.09485722 505.38887528 -535.66641314 487.67724499 -537 468.5625 C-537.34449899 449.53850048 -531.56386668 431.11744285 -518.2355957 417.25390625 C-510.18752389 409.13601311 -502.14648369 402.20744851 -491.25 398.3125 C-490.56534668 398.06290527 -489.88069336 397.81331055 -489.17529297 397.55615234 C-470.56310137 391.04987242 -450.87346073 392.55025688 -432.98876953 400.56738281 C-419.79776861 407.16774124 -408.97711389 417.61123234 -402 430.5625 C-402 431.2225 -402 431.8825 -402 432.5625 C-347.88 432.5625 -293.76 432.5625 -238 432.5625 C-238 415.0725 -238 397.5825 -238 379.5625 C-234.48289286 359.63222618 -234.48289286 359.63222618 -232.3125 353.4375 C-232.05758789 352.69798096 -231.80267578 351.95846191 -231.54003906 351.1965332 C-226.85254093 338.12950213 -219.83298576 327.18708192 -211 316.5625 C-210.30390625 315.68980469 -209.6078125 314.81710937 -208.890625 313.91796875 C-197.15688767 299.91247401 -180.34261309 290.21971506 -163.25 284.25 C-162.60893311 284.01949951 -161.96786621 283.78899902 -161.30737305 283.55151367 C-136.52057884 275.48091214 -109.31767419 278.5625 -84 278.5625 C-84 224.4425 -84 170.3225 -84 114.5625 C-85.32 114.2325 -86.64 113.9025 -88 113.5625 C-103.08467057 105.73639368 -114.07179726 91.00156798 -119.34814453 75.10229492 C-125.34777294 55.75293153 -124.4828664 35.72619931 -115 17.5625 C-104.23162844 -0.24511833 -89.54443602 -12.47443465 -69.23828125 -18.21875 C-66.82881739 -18.73317243 -64.44176736 -19.11384292 -62 -19.4375 C-61.27296875 -19.57027344 -60.5459375 -19.70304688 -59.796875 -19.83984375 C-38.59410581 -23.04910643 -15.33631347 -14.71140426 0 0 Z M-162.98828125 362.84765625 C-170.63760623 373.1705317 -172.30261478 384.28319723 -172.25726891 396.77069378 C-172.26077498 397.99334721 -172.26428105 399.21600063 -172.26789337 400.47570416 C-172.27559067 403.86760492 -172.27435802 407.25928859 -172.26933783 410.65118019 C-172.2660669 414.34208592 -172.27435732 418.03296882 -172.28115618 421.72386724 C-172.29145929 428.19220519 -172.29429943 434.66051322 -172.29224396 441.12885857 C-172.28919478 450.74773455 -172.29751611 460.36657739 -172.30799321 469.98544693 C-172.32734092 488.16454587 -172.33296172 506.34363355 -172.33410732 524.52274158 C-172.33502622 538.56134437 -172.33914193 552.59994273 -172.34550858 566.63854408 C-172.34730365 570.67878081 -172.34908328 574.71901754 -172.35085833 578.75925428 C-172.35130043 579.76365585 -172.35174252 580.76805743 -172.35219802 581.80289542 C-172.36450749 610.05732073 -172.37239904 638.3117445 -172.37151146 666.5661726 C-172.3714803 667.63155888 -172.37144914 668.69694516 -172.37141704 669.79461587 C-172.37125083 675.19449778 -172.37105274 680.59437968 -172.37084763 685.99426159 C-172.37080774 687.0667068 -172.37076785 688.13915202 -172.37072675 689.24409557 C-172.37064587 691.41284162 -172.37056228 693.58158767 -172.37047596 695.75033372 C-172.36925045 729.49250859 -172.38426321 763.23464327 -172.41162109 796.97680664 C-172.44234152 834.88185934 -172.45955361 872.78688563 -172.45769465 910.69195157 C-172.45754539 914.73376008 -172.45744797 918.77556858 -172.45738602 922.81737709 C-172.45736271 923.81258008 -172.4573394 924.80778308 -172.45731538 925.83314374 C-172.45725384 941.84931692 -172.47002619 957.8654552 -172.48725055 973.88161801 C-172.50420342 989.97826341 -172.50618357 1006.07485775 -172.4930319 1022.17150714 C-172.48564044 1031.73365606 -172.48930659 1041.29564989 -172.50891658 1050.85778238 C-172.52091399 1057.24795262 -172.51832818 1063.63801052 -172.50397559 1070.0281756 C-172.49621054 1073.66723086 -172.49466637 1077.30598598 -172.51089029 1080.9450201 C-172.52824358 1084.87185961 -172.51442685 1088.79825052 -172.49777794 1092.72510052 C-172.5077143 1093.84539562 -172.51765066 1094.96569073 -172.52788812 1096.11993417 C-172.40656618 1109.66300761 -168.08889621 1121.7101842 -158.96875 1131.8125 C-151.32937314 1139.11973004 -141.57997285 1144.68403889 -130.85316741 1144.6901505 C-129.80464619 1144.69316647 -128.75612496 1144.69618244 -127.67583036 1144.6992898 C-126.52283776 1144.69752033 -125.36984515 1144.69575086 -124.18191338 1144.69392776 C-122.95284629 1144.6959804 -121.72377921 1144.69803303 -120.45746768 1144.70014787 C-117.02900926 1144.70484602 -113.60060304 1144.70504037 -110.17214525 1144.70337028 C-106.44855222 1144.70264045 -102.72496629 1144.70765914 -99.00137627 1144.7119453 C-91.60845628 1144.71953398 -84.2155435 1144.7217188 -76.82262002 1144.72227435 C-67.97047487 1144.72318714 -59.11833643 1144.72985214 -50.26619416 1144.73662117 C-28.86887892 1144.75269241 -7.47156439 1144.75858571 13.92575579 1144.76336992 C24.04536318 1144.76570473 34.16497 1144.76930725 44.28457695 1144.7730653 C78.91554801 1144.78590175 113.54651875 1144.7966209 148.17749214 1144.8000679 C150.35203484 1144.80028954 152.52657755 1144.80051132 154.70112025 1144.80073325 C156.88095883 1144.80095389 159.06079741 1144.80117438 161.24063599 1144.8013947 C165.61387452 1144.80183726 169.98711304 1144.80228437 174.36035156 1144.80273438 C175.44466306 1144.80284377 176.52897457 1144.80295316 177.64614399 1144.80306586 C212.81033896 1144.80669704 247.97451332 1144.82261891 283.13870039 1144.84592474 C320.30408073 1144.87051193 357.46944928 1144.88424022 394.63483799 1144.88543582 C398.71344622 1144.88560728 402.79205446 1144.88582271 406.87066269 1144.88607025 C407.87495286 1144.88612602 408.87924302 1144.88618179 409.91396623 1144.88623925 C426.08715802 1144.88739066 442.26032869 1144.89842035 458.43351335 1144.91295731 C474.68517548 1144.92731237 490.9368105 1144.9305649 507.18847723 1144.92251733 C516.84674903 1144.9180564 526.50493338 1144.92194019 536.16319371 1144.93775584 C542.61374702 1144.94749246 549.06423895 1144.9463402 555.51479168 1144.93631961 C559.19083029 1144.93091805 562.86670077 1144.930248 566.54272558 1144.94282833 C570.50418605 1144.95627238 574.46539721 1144.94647408 578.42686653 1144.9344368 C579.56581214 1144.94203199 580.70475775 1144.94962718 581.87821686 1144.95745254 C595.30461232 1144.8691069 605.9229032 1140.57658645 615.75 1131.375 C625.62425382 1121.01140263 628.30699461 1110.22683318 628.25726891 1096.3780632 C628.26252802 1094.52971968 628.26252802 1094.52971968 628.26789337 1092.64403588 C628.27559937 1089.22063205 628.27435371 1085.79744289 628.26933783 1082.37404804 C628.26607033 1078.6507595 628.27435447 1074.9274937 628.28115618 1071.20421243 C628.29146479 1064.67752682 628.29429848 1058.15087088 628.29224396 1051.62417793 C628.28919622 1041.91863098 628.29751291 1032.2131169 628.30799321 1022.50757634 C628.32734593 1004.16538481 628.3329619 985.82320445 628.33410732 967.48100391 C628.33502602 953.31745536 628.33914069 939.1539112 628.34550858 924.99036407 C628.34730363 920.91500799 628.34908326 916.83965191 628.35085833 912.76429582 C628.35130043 911.75118141 628.35174252 910.738067 628.35219802 909.69425215 C628.36450828 881.19297714 628.37239895 852.69170366 628.37151146 824.19042587 C628.3714803 823.11562598 628.37144914 822.04082608 628.37141704 820.9334565 C628.37125083 815.48578854 628.37105274 810.03812059 628.37084763 804.59045264 C628.37080774 803.50850505 628.37076785 802.42655747 628.37072675 801.31182359 C628.37064587 799.12386147 628.37056228 796.93589934 628.37047596 794.74793722 C628.36925035 760.70384862 628.38426483 726.65979986 628.41162109 692.61572266 C628.44233519 654.37705725 628.459554 616.13841802 628.45769465 577.8997395 C628.45754539 573.823126 628.45744797 569.74651249 628.45738602 565.66989899 C628.45736271 564.66611574 628.4573394 563.6623325 628.45731538 562.62813158 C628.45725381 546.46738447 628.47003118 530.30667191 628.48725055 514.14593507 C628.50419556 497.90693601 628.50618973 481.66798756 628.4930319 465.42898455 C628.48563525 455.77977115 628.48932207 446.13071138 628.50891658 436.48151422 C628.52090063 430.03582648 628.51834308 423.59025022 628.50397559 417.14456764 C628.49619925 413.47214603 628.49469889 409.80002209 628.51089029 406.12762126 C628.52819343 402.168369 628.51445414 398.20956391 628.49777794 394.25030136 C628.5077143 393.11484031 628.51765066 391.97937925 628.52788812 390.80951029 C628.40903026 377.48693298 623.27445073 367.05170754 614.3125 357.375 C603.95981923 347.45780485 592.49376104 345.25556205 578.69251537 345.30523109 C577.45913251 345.30172502 576.22574965 345.29821895 574.95499155 345.29460663 C571.53301357 345.28690877 568.11125075 345.28814225 564.68928184 345.29316217 C560.96580085 345.29643286 557.24234249 345.28814289 553.51886874 345.28134382 C546.99339587 345.2710404 540.46795266 345.26820062 533.94247246 345.27025604 C524.23874485 345.27330511 514.53505009 345.26498418 504.83132887 345.25450679 C486.49254308 345.23515922 468.15376847 345.2295383 449.81497367 345.22839268 C435.65430945 345.22747384 421.49364962 345.22335844 407.33298683 345.21699142 C403.25789367 345.21519636 399.1828005 345.21341673 395.10770732 345.21164167 C394.09465017 345.21119957 393.08159302 345.21075748 392.03783716 345.21030198 C363.54049002 345.19799272 335.0431444 345.19010095 306.54579449 345.19098854 C305.47126061 345.1910197 304.39672673 345.19105086 303.28963122 345.19108296 C297.84335409 345.19124917 292.39707697 345.19144726 286.95079985 345.19165237 C285.8691346 345.19169226 284.78746935 345.19173215 283.67302637 345.19177325 C281.48563591 345.19185413 279.29824546 345.19193772 277.110855 345.19202404 C243.07331659 345.19324974 209.03581802 345.17823321 174.99829102 345.15087891 C136.76437938 345.12016489 98.53049392 345.10294598 60.29656917 345.10480535 C56.22053293 345.10495461 52.1444967 345.10505203 48.06846046 345.10511398 C47.06482372 345.10513729 46.06118698 345.1051606 45.027137 345.10518462 C28.86923434 345.10524619 12.71136624 345.09246926 -3.44652614 345.07524945 C-19.68204253 345.05830463 -35.91750831 345.05631014 -52.15302864 345.0694681 C-61.8000254 345.07686472 -71.44686848 345.073178 -81.09384899 345.05358342 C-87.53802372 345.04159938 -93.98208695 345.04415691 -100.42625653 345.05852441 C-104.09779637 345.06630073 -107.76903847 345.06780119 -111.44055752 345.05160971 C-115.39884799 345.03430653 -119.35669119 345.04804587 -123.31499195 345.06472206 C-124.45016716 345.0547857 -125.58534236 345.04484934 -126.75491682 345.03461188 C-141.78448244 345.16873097 -153.28802216 351.58993846 -162.98828125 362.84765625 Z " fill="#8D5C9E" transform="translate(771,220.4375)"/>
<path d="M0 0 C1.92891677 -0.00504647 3.85782885 -0.01227607 5.78673017 -0.02149814 C11.08176438 -0.04043255 16.37633695 -0.02817978 21.67135954 -0.01077521 C27.38375001 0.0025891 33.09607251 -0.01283488 38.80845642 -0.02459717 C49.99627216 -0.04298433 61.18391335 -0.03445448 72.37172367 -0.01650894 C81.46236054 -0.00248953 90.55295 0.00141127 99.64359665 -0.00195122 C101.58351281 -0.00266738 101.58351281 -0.00266738 103.5626192 -0.00339801 C106.18977155 -0.00442433 108.8169239 -0.00547969 111.44407623 -0.00656378 C135.3805083 -0.01539177 159.3168478 0.00326796 183.25325782 0.03396646 C205.10623941 0.06183339 226.95910973 0.06678751 248.81210327 0.05177307 C254.40913703 0.04795066 260.00617079 0.04415587 265.60320473 0.04060268 C266.29225907 0.04016487 266.98131341 0.03972706 267.69124819 0.03927597 C285.95138775 0.02803847 304.21151716 0.03545605 322.4716543 0.04848343 C325.08858958 0.05032785 327.70552487 0.05216258 330.32246017 0.0539875 C331.6100955 0.05489959 332.89773082 0.05581168 334.22438539 0.05675141 C343.30721961 0.06236227 352.39002572 0.05904456 361.47285843 0.05244255 C372.53715439 0.04471964 383.60133066 0.05142461 394.66560246 0.07661759 C400.31290425 0.08913599 405.96001947 0.09523069 411.60732841 0.08407593 C416.77384332 0.07406333 421.9399855 0.08242958 427.10645489 0.10565711 C428.97844382 0.11083267 430.85046593 0.10922543 432.72244056 0.10026246 C435.26206308 0.0891115 437.80041563 0.10245339 440.3399601 0.12203121 C441.07114056 0.11295239 441.80232102 0.10387358 442.55565846 0.09451964 C448.52199695 0.18452038 452.02262129 2.36012833 456.2124939 6.44459534 C456.69073608 7.02080627 457.16897827 7.59701721 457.66171265 8.19068909 C458.15284546 8.76947815 458.64397827 9.34826721 459.1499939 9.94459534 C481.13919202 40.81542397 461.34921265 85.72656782 461.34921265 123.62818909 C386.43921265 123.62818909 311.52921265 123.62818909 234.34921265 123.62818909 C234.34921265 146.06818909 234.34921265 168.50818909 234.34921265 191.62818909 C309.25921265 191.62818909 384.16921265 191.62818909 461.34921265 191.62818909 C461.34921265 228.58818909 461.34921265 265.54818909 461.34921265 303.62818909 C429.33921265 303.62818909 397.32921265 303.62818909 364.34921265 303.62818909 C364.34921265 325.73818909 364.34921265 347.84818909 364.34921265 370.62818909 C396.35921265 370.62818909 428.36921265 370.62818909 461.34921265 370.62818909 C461.46953907 397.01087256 461.46953907 397.01087256 461.49569702 408.27272034 C461.51361755 415.95165744 461.5347986 423.63048703 461.57553101 431.30934143 C461.60817086 437.50147173 461.62607557 443.69348671 461.63384438 449.88569641 C461.63937953 452.24594436 461.65018832 454.60618614 461.66640282 456.96638489 C461.68823811 460.27696788 461.69117696 463.58707671 461.68978882 466.89772034 C461.70596756 468.35537056 461.70596756 468.35537056 461.72247314 469.84246826 C461.69268372 476.42527642 460.98717751 482.31955518 456.7359314 487.65162659 C456.17518921 488.09764221 455.61444702 488.54365784 455.03671265 489.00318909 C454.48370483 489.46467346 453.93069702 489.92615784 453.3609314 490.40162659 C448.28005395 493.49948196 443.21451595 493.91792745 437.39684296 493.88266468 C436.2165792 493.8874744 436.2165792 493.8874744 435.01247174 493.89238128 C432.37183697 493.90069275 429.73142834 493.89475299 427.09078979 493.8888855 C425.18010353 493.89190565 423.26941847 493.89579444 421.35873556 493.90047807 C416.1049259 493.91078421 410.85118427 493.90856959 405.59736896 493.90429747 C399.93267752 493.90183503 394.26800266 493.91083836 388.60331726 493.91833496 C377.50485092 493.93109692 366.40640875 493.93287383 355.30793631 493.9305347 C346.28972518 493.92875323 337.27152141 493.9304975 328.25331116 493.93475914 C326.97086418 493.93535433 325.6884172 493.93594952 324.3671082 493.93656274 C321.76202079 493.93777446 319.15693338 493.9389886 316.55184597 493.94020512 C299.05595826 493.94799441 281.56007504 493.95190996 264.0641861 493.94788837 C263.3799692 493.947732 262.69575231 493.94757562 261.99080157 493.94741451 C258.52287198 493.94660872 255.0549424 493.94576295 251.58701283 493.94490121 C250.55388806 493.94464457 250.55388806 493.94464457 249.49989209 493.94438276 C248.10707326 493.9440361 246.71425443 493.94368757 245.32143559 493.94333717 C223.64334129 493.93797853 201.96528765 493.94591433 180.28720093 493.96437073 C155.93545359 493.98507912 131.58373757 493.99578467 107.23197985 493.99179524 C94.3366099 493.9898802 81.441277 493.99240026 68.5459137 494.00650978 C57.56943223 494.01839801 46.59301064 494.0198572 35.61652839 494.00771961 C30.01381723 494.00181322 24.41121572 494.00078 18.80851173 494.01272202 C13.68269518 494.02352085 8.55708062 494.02054937 3.43127376 494.00646033 C1.57402362 494.00379681 -0.28324204 494.00623143 -2.140477 494.01419619 C-4.66003641 494.0242539 -7.1788871 494.01592196 -9.69841766 494.0029192 C-10.42375244 494.01022854 -11.14908721 494.01753789 -11.89640182 494.02506873 C-17.94119104 493.96016392 -21.80183639 492.21914689 -26.33828735 488.31568909 C-30.87386485 483.04461254 -32.09437557 478.47348346 -32.0338974 471.63455391 C-32.04133667 470.44759126 -32.04133667 470.44759126 -32.04892623 469.23664957 C-32.06189659 466.58071432 -32.05349315 463.92528063 -32.04519653 461.26933289 C-32.05008475 459.34769549 -32.05627423 457.42606104 -32.06365442 455.50443161 C-32.08008578 450.22025516 -32.0777295 444.93622761 -32.07227945 439.65203452 C-32.06961321 433.95457351 -32.08413342 428.25715254 -32.09637451 422.55970764 C-32.11744769 411.39639547 -32.12196829 400.23313522 -32.12018663 389.06980552 C-32.11887997 379.99773679 -32.1226782 370.92568429 -32.13011169 361.85361862 C-32.13221085 359.24230031 -32.13430845 356.630982 -32.13640451 354.01966369 C-32.13744804 352.72001493 -32.13849157 351.42036616 -32.13956672 350.0813341 C-32.15310341 332.47866562 -32.16069169 314.87600589 -32.15624237 297.2733326 C-32.15607042 296.58491756 -32.15589846 295.89650252 -32.1557213 295.18722642 C-32.1548324 291.69804311 -32.15388759 288.20885981 -32.15292329 284.71967651 C-32.15273225 284.02671024 -32.15254122 283.33374398 -32.1523444 282.61977873 C-32.15195731 281.2184325 -32.15156698 279.81708627 -32.15117342 278.41574003 C-32.14520319 256.61004819 -32.16064229 234.80446247 -32.19277954 212.99879456 C-32.22885343 188.50125748 -32.24814585 164.00379916 -32.24324083 139.50623214 C-32.24099427 126.5347587 -32.24626672 113.56339046 -32.27113342 100.59193802 C-32.29212207 89.54923933 -32.29576265 78.50670353 -32.27683383 67.46399821 C-32.26766114 61.8285648 -32.26658015 56.1934353 -32.28718948 50.55802536 C-32.30584489 45.39990889 -32.30145683 40.24234641 -32.27864367 35.08425139 C-32.27444419 33.21754357 -32.27870298 31.35079373 -32.29223961 29.48413028 C-32.40950586 12.13273839 -32.40950586 12.13273839 -28.20061576 7.0846594 C-27.68917239 6.6040242 -27.17772901 6.12338899 -26.65078735 5.62818909 C-26.17058392 5.11677484 -25.69038048 4.6053606 -25.19562542 4.07844895 C-18.44946415 -1.54844927 -8.2641685 -0.05665783 0 0 Z " fill="#282C33" transform="translate(784.6507873535156,718.3718109130859)"/>
<path d="M0 0 C1.97045926 -0.00302334 3.94091735 -0.00691374 5.91137338 -0.01159257 C11.30753393 -0.0218578 16.70362793 -0.01969448 22.09979391 -0.01541197 C27.92680671 -0.01294206 33.7538036 -0.02196225 39.58081055 -0.02944946 C50.9897576 -0.04219137 62.39868111 -0.04399076 73.80763409 -0.0416492 C83.08308532 -0.03986521 92.35852942 -0.04161742 101.6339798 -0.04587364 C102.96812267 -0.04647605 104.30226553 -0.04707725 105.6364084 -0.04767724 C107.64701809 -0.04858453 109.65762778 -0.0494932 111.66823746 -0.0504096 C130.35484331 -0.05883556 149.04144656 -0.06317732 167.72805405 -0.05900288 C168.4320568 -0.0588465 169.13605955 -0.05869012 169.86139572 -0.05852901 C173.42928775 -0.05772327 176.99717977 -0.0568775 180.56507179 -0.05601571 C181.27362325 -0.05584462 181.98217472 -0.05567353 182.71219743 -0.05549726 C184.14505987 -0.0551506 185.5779223 -0.05480207 187.01078473 -0.05445167 C209.30068285 -0.04909578 231.59054139 -0.05702259 253.88043213 -0.07548523 C278.94352737 -0.09622077 304.00659809 -0.10692493 329.06970239 -0.10290974 C331.74432643 -0.10251442 334.41895047 -0.10215287 337.09357452 -0.10181236 C338.40946369 -0.10164452 339.72535285 -0.10147668 341.08111744 -0.10130376 C350.34009582 -0.10086641 359.59905201 -0.10774894 368.8580246 -0.11762428 C380.14960001 -0.12954583 391.44111718 -0.13093428 402.7326934 -0.11883412 C408.49047361 -0.11295076 414.24814734 -0.11183107 420.00592041 -0.12383652 C425.28374065 -0.13471305 430.56136574 -0.13157081 435.83917692 -0.11757483 C437.74152494 -0.11493278 439.64388833 -0.11727886 441.54622123 -0.1253107 C464.33652827 -0.21480262 483.33931238 4.24700358 501.63140869 18.26069641 C502.28367432 18.7286261 502.93593994 19.19655579 503.60797119 19.67866516 C519.09891829 31.60889693 529.08718741 52.22446929 531.63140869 71.26069641 C532.37910633 77.06767059 532.77721313 82.75768994 532.76283646 88.61115932 C532.76591541 89.80135288 532.76591541 89.80135288 532.76905656 91.01559076 C532.77468787 93.66073937 532.77327413 96.30583526 532.77185059 98.95098877 C532.77443645 100.87221017 532.77745022 102.79343104 532.78085399 104.71465117 C532.78890134 109.98410364 532.79071229 115.25354247 532.79145145 120.52300036 C532.79330597 126.21035985 532.80085533 131.89771233 532.80758667 137.58506775 C532.82115465 150.01716412 532.82719238 162.44925727 532.83159733 174.88135982 C532.83436247 182.64847237 532.83860034 190.41558368 532.8431015 198.18269539 C532.8552924 219.70012197 532.86562726 241.21754694 532.86897659 262.73497677 C532.86919822 264.12541136 532.86942001 265.51584596 532.86964194 266.90628055 C532.86986258 268.29998716 532.87008306 269.69369377 532.87030339 271.08740038 C532.87074593 273.88320283 532.87119305 276.67900529 532.87164307 279.47480774 C532.87175246 280.16799964 532.87186185 280.86119154 532.87197455 281.57538925 C532.87560321 304.03978567 532.89151723 326.50414978 532.91483343 348.96853383 C532.93946504 372.74394087 532.95314428 396.51932571 532.95434451 420.29474646 C532.95525999 433.24523123 532.96098014 446.19567369 532.97916412 459.14614677 C532.99459656 470.17564103 532.99966705 481.20507989 532.99142602 492.23458289 C532.9875306 497.85703194 532.98839483 503.47936954 533.00248337 509.10180473 C533.01528881 514.25958103 533.01396687 519.41716291 533.00189266 524.5749392 C532.9999471 526.43029632 533.00296058 528.28566753 533.01173702 530.14100491 C533.07665878 544.80649903 532.6216828 560.47530241 526.50640869 574.07319641 C526.21000488 574.76203918 525.91360107 575.45088196 525.60821533 576.16059875 C522.46294777 583.15637259 518.3143574 589.20245793 513.63140869 595.26069641 C513.16476807 595.91038391 512.69812744 596.56007141 512.21734619 597.22944641 C499.74659586 613.44907261 478.5621293 622.84615268 458.70662504 625.51988702 C453.55318183 626.12830203 448.50152462 626.40492493 443.31497383 626.39212418 C442.13029479 626.39520313 442.13029479 626.39520313 440.92168283 626.39834428 C438.28903027 626.40397518 435.65643067 626.4025619 433.02377319 626.40113831 C431.11151408 626.40372419 429.19925551 626.40673798 427.28699768 626.41014171 C422.04227895 626.41818881 416.79757393 626.42 411.55284977 626.42073917 C405.89205625 626.42259375 400.23126978 626.43014316 394.57048035 626.43687439 C382.19616623 626.45044244 369.82185536 626.45648019 357.44753504 626.46088505 C349.71592675 626.46365032 341.9843197 626.46788822 334.25271225 626.47238922 C312.83222316 626.4845804 291.41173569 626.49491503 269.99124336 626.49826431 C268.60705805 626.49848594 267.22287273 626.49870773 265.83868741 626.49892966 C264.45124884 626.4991503 263.06381027 626.49937078 261.67637169 626.49959111 C258.89315486 626.50003365 256.10993802 626.50048077 253.32672119 626.50093079 C252.29161401 626.50109487 252.29161401 626.50109487 251.23559557 626.50126227 C228.87519248 626.50489047 206.51482185 626.52080257 184.15443119 626.54412115 C160.48741127 626.568757 136.82041534 626.58243221 113.15338123 626.58363223 C100.26266825 626.5845475 87.37199778 626.59026247 74.48129654 626.60845184 C63.5019698 626.62388991 52.52269871 626.6289515 41.54336317 626.62071374 C35.94711849 626.61682022 30.35098576 626.6176731 24.75475502 626.63177109 C19.61974803 626.64458819 14.48493622 626.64324457 9.3499292 626.63118038 C7.50397548 626.6292368 5.65800756 626.63223888 3.81207372 626.64102474 C-24.054323 626.7651327 -49.37033704 621.60217552 -69.86859131 601.44819641 C-75.86103025 595.31893998 -80.33248489 588.84309051 -84.36859131 581.26069641 C-84.85843506 580.38671204 -85.34827881 579.51272766 -85.85296631 578.61225891 C-91.71612959 567.67918385 -93.52542794 556.12487051 -93.5056057 543.85425282 C-93.50825752 543.04258259 -93.51090935 542.23091237 -93.51364154 541.39464608 C-93.52128604 538.68151203 -93.52189184 535.96842361 -93.52249146 533.25527954 C-93.52650929 531.28756139 -93.53094804 529.31984407 -93.53577101 527.35212773 C-93.54770674 521.94939216 -93.55337799 516.54666551 -93.55795217 511.14391935 C-93.5639197 505.3146954 -93.57552669 499.48548204 -93.58624268 493.65626526 C-93.61074091 479.58003018 -93.62539036 465.50379159 -93.63830274 451.42754176 C-93.64201665 447.44949566 -93.64598973 443.47144991 -93.65005541 439.49340415 C-93.67529468 414.77232856 -93.69735629 390.05125245 -93.70978355 365.33016682 C-93.71270458 359.6067333 -93.71567217 353.8832998 -93.71868896 348.15986633 C-93.71905987 347.44884571 -93.71943078 346.73782509 -93.71981293 346.0052584 C-93.73195757 322.97310393 -93.76288587 299.94102607 -93.80461049 276.90890755 C-93.84747314 253.2051325 -93.87403407 229.50139788 -93.87925827 205.79758304 C-93.88233806 191.84679559 -93.8931218 177.89610406 -93.92780685 163.94535255 C-93.95588304 152.63446045 -93.9667735 141.323714 -93.95561139 130.01278976 C-93.95044411 124.24813261 -93.95318567 118.4837801 -93.97807693 112.71916771 C-94.00073242 107.42785871 -93.99970419 102.13707031 -93.98087306 96.84575119 C-93.97809574 94.94521826 -93.98354309 93.04464877 -93.998686 91.14417414 C-94.17920603 66.98489423 -88.53507067 47.26015874 -73.36859131 28.26069641 C-72.70988037 27.39960266 -72.05116943 26.53850891 -71.37249756 25.65132141 C-61.02961354 13.31244224 -45.75160043 5.90593717 -30.36859131 2.26069641 C-29.66655193 2.08686756 -28.96451255 1.91303872 -28.24119925 1.73394233 C-18.88439577 -0.27688364 -9.51873898 -0.02071684 0 0 Z M-24.24359131 73.32319641 C-24.61484131 73.96257141 -24.98609131 74.60194641 -25.36859131 75.26069641 C-25.71654587 75.80074912 -26.06450044 76.34080183 -26.42299908 76.89721978 C-27.76086782 80.24117863 -27.64426802 83.46750282 -27.6230669 87.01382256 C-27.62627338 87.80342249 -27.62947986 88.59302243 -27.6327835 89.40654963 C-27.64112529 92.06860657 -27.63514466 94.73044096 -27.62928772 97.39250183 C-27.6323065 99.31383638 -27.6361946 101.23516973 -27.64088029 103.15650094 C-27.65120432 108.44903382 -27.64896729 113.7414993 -27.64469969 119.03403783 C-27.64224043 124.73693789 -27.65123666 130.43982139 -27.65873718 136.14271545 C-27.67150862 147.32033059 -27.67327483 158.49792173 -27.67093692 169.67554294 C-27.66915629 178.75816116 -27.6708979 187.84077208 -27.67516136 196.92338943 C-27.67575655 198.21443348 -27.67635174 199.50547752 -27.67696496 200.8356441 C-27.67817667 203.45812558 -27.67939081 206.08060706 -27.68060734 208.70308854 C-27.68839862 226.3203647 -27.69231084 243.93763697 -27.6882906 261.55491447 C-27.68813422 262.24411198 -27.68797784 262.93330949 -27.68781673 263.64339177 C-27.68701093 267.13665266 -27.68616516 270.62991354 -27.68530343 274.12317441 C-27.68513234 274.81696776 -27.68496125 275.5107611 -27.68478498 276.22557848 C-27.68443832 277.62859791 -27.68408979 279.03161735 -27.68373939 280.43463678 C-27.67838189 302.26680935 -27.68631242 324.09894153 -27.70477295 345.93110657 C-27.7254814 370.45057406 -27.73618676 394.97001233 -27.73219746 419.48948967 C-27.73028225 432.47543327 -27.73280405 445.46134007 -27.746912 458.44727707 C-27.75880051 469.50249215 -27.7602592 480.55764779 -27.74812184 491.61286364 C-27.74221528 497.25606595 -27.74118262 502.8991594 -27.75312424 508.54235458 C-27.76392276 513.70525889 -27.76095194 518.86796266 -27.74686255 524.03085734 C-27.74419891 525.90162612 -27.746634 527.77241031 -27.75459842 529.64316402 C-27.76465535 532.1809828 -27.7563248 534.71809786 -27.74332142 537.25588799 C-27.75063076 537.98660749 -27.75794011 538.71732699 -27.76547095 539.47018951 C-27.70082989 545.5332996 -25.97202545 549.39724592 -22.05609131 553.94819641 C-16.79978743 558.47106254 -12.24315742 559.70432383 -5.42180824 559.63821983 C-4.63556493 559.64258016 -3.84932162 559.64694048 -3.03925276 559.65143293 C-0.40053555 559.66239487 2.23765976 559.65196284 4.87637329 559.64164734 C6.78563537 559.64510354 8.69489546 559.64986785 10.60415137 559.65582907 C15.85413319 559.6683741 21.10395181 559.66215271 26.35393429 559.65287042 C32.01457778 559.64609452 37.67519282 559.65655397 43.33583069 559.66481018 C54.42696047 559.67816582 65.51802942 559.67526146 76.6091616 559.66657226 C85.62259053 559.65980264 94.63600239 559.65887587 103.64943314 559.66214371 C104.93130267 559.66260341 106.2131722 559.66306311 107.53388626 559.66353673 C110.13784221 559.66449589 112.74179816 559.66546853 115.3457541 559.66645451 C139.08002697 559.67476983 162.81426298 559.66613948 186.54852998 559.65042672 C208.21321828 559.63619312 229.87785367 559.63746072 251.5425415 559.65180969 C275.88185926 559.66787623 300.22114101 559.67418654 324.5604645 559.6649729 C327.15556057 559.66401724 329.75065664 559.66307413 332.34575272 559.66214371 C333.62264015 559.66168088 334.89952758 559.66121805 336.21510857 559.6607412 C345.21782877 559.6581498 354.22053022 559.66252562 363.22324753 559.66958237 C374.19455234 559.67799297 385.16579276 559.67572656 396.13709019 559.65974014 C401.73599574 559.65185106 407.33479388 559.6487767 412.93369865 559.65868759 C418.05839098 559.66762188 423.18287627 559.66272235 428.30754979 559.64675494 C430.16214177 559.64340175 432.01675121 559.64511326 433.87133197 559.6523823 C436.39211777 559.66150515 438.91219449 559.65214783 441.43294334 559.63821983 C442.51306446 559.64875508 442.51306446 559.64875508 443.61500621 559.65950316 C449.47329703 559.59480949 454.99256745 558.3646374 459.65484619 554.64741516 C460.10086182 554.08667297 460.54687744 553.52593079 461.00640869 552.94819641 C461.46789307 552.3951886 461.92937744 551.84218079 462.40484619 551.27241516 C466.02348964 545.33737893 465.90783218 539.47912347 465.85845947 532.75727844 C465.85889755 531.19051613 465.85889755 531.19051613 465.85934448 529.59210205 C465.85795476 526.15081888 465.84241017 522.70975411 465.82672119 519.26850891 C465.8229898 516.87811908 465.82014342 514.48772772 465.81814575 512.09733582 C465.81051929 505.81403867 465.79087916 499.53083438 465.76873779 493.24757385 C465.74465578 485.7042991 465.73549369 478.16099325 465.72383118 470.61769104 C465.70445431 459.16529497 465.66612464 447.71310253 465.63140869 436.26069641 C433.62140869 436.26069641 401.61140869 436.26069641 368.63140869 436.26069641 C368.63140869 414.15069641 368.63140869 392.04069641 368.63140869 369.26069641 C400.64140869 369.26069641 432.65140869 369.26069641 465.63140869 369.26069641 C465.63140869 332.30069641 465.63140869 295.34069641 465.63140869 257.26069641 C390.72140869 257.26069641 315.81140869 257.26069641 238.63140869 257.26069641 C238.63140869 234.82069641 238.63140869 212.38069641 238.63140869 189.26069641 C313.54140869 189.26069641 388.45140869 189.26069641 465.63140869 189.26069641 C475.55686953 124.84514513 475.55686953 124.84514513 459.13140869 70.44819641 C454.49299159 66.38958145 450.92773369 65.96916331 444.8682518 66.00063419 C444.07756268 65.99682852 443.28687357 65.99302285 442.47222418 65.98910186 C439.80644978 65.97874511 437.14088671 65.98269975 434.47509766 65.98654175 C432.55106308 65.98209156 430.62703034 65.97677824 428.70300031 65.97067302 C423.4029336 65.95645629 418.10292543 65.95483043 412.80284238 65.95526993 C407.09171914 65.95362496 401.38062024 65.94056444 395.66950989 65.92907715 C383.17580674 65.90620329 370.68212056 65.898304 358.18839931 65.8932507 C350.39040053 65.88999651 342.59240669 65.88347573 334.79441071 65.87624931 C313.21282924 65.85668042 291.63125415 65.84019657 270.04966354 65.83737278 C269.35923361 65.83727872 268.66880368 65.83718466 267.95745164 65.83708775 C265.1593933 65.83670926 262.36133496 65.83634527 259.56327662 65.83598477 C257.45724382 65.83571305 255.35121102 65.83543637 253.24517822 65.8351593 C252.20130734 65.83502727 252.20130734 65.83502727 251.13634816 65.83489257 C229.27056686 65.83198715 207.40487395 65.80989233 185.53912354 65.77363586 C160.97934754 65.73291347 136.41963775 65.70923383 111.85982537 65.70891327 C98.85366394 65.70832805 85.84761628 65.6997945 72.84148407 65.6709156 C61.76763567 65.64644064 50.69394253 65.6390926 39.62007442 65.65416313 C33.96844826 65.66134784 28.31712893 65.66040717 22.66553688 65.63775253 C17.49254572 65.61721478 12.32009829 65.61971441 7.14711335 65.64062738 C5.27495895 65.64413223 3.40276574 65.63917036 1.53066227 65.62492294 C-12.78640918 65.35833256 -12.78640918 65.35833256 -24.24359131 73.32319641 Z " fill="#8E5CA0" transform="translate(780.3685913085938,652.7393035888672)"/>
</svg>
